<svg id="Layer_1" data-name="Layer 1" xmlns="http://www.w3.org/2000/svg" viewBox="0 0 800 300"><defs><style>.cls-1{fill:#569de1;}</style></defs><title>Artboard 1</title><path class="cls-1" d="M396.26,155.89a20.41,20.41,0,0,1,4.58,13.25q0,10.59-7.08,16.7T373.25,192h-36V108h35.31q12.72,0,19.56,5.59t6.83,15.69q0,7.84-4.1,12.84a19.05,19.05,0,0,1-10.76,6.54A20.36,20.36,0,0,1,396.26,155.89ZM354,143.22h15.1q6.3,0,9.57-2.79t3.27-8c0-3.48-1.07-6.18-3.21-8.08s-5.43-2.85-9.87-2.85H354Zm26.16,32.16q3.57-2.91,3.56-8.5t-3.62-8.62q-3.63-3-10.29-3H354v23.06h15.93C374.36,178.29,377.77,177.33,380.15,175.38Z"/><path class="cls-1" d="M468.24,192l-19.61-32.7h-7.37V192H424.49V108h32q14.63,0,22.29,7.14T486.43,134q0,9.51-5.29,15.93t-15.27,8.56L486.79,192Zm-27-44.23h13.79q14.37,0,14.38-12.72,0-6.06-3.5-9.45t-10.88-3.39H441.26Z"/><path class="cls-1" d="M560.74,175.09H527.09L521.15,192H503.43l30.91-83h19.14l30.8,83H566.56Zm-4.52-12.72-12.36-35.43-12.37,35.43Z"/><path class="cls-1" d="M676.29,192H659.53L622,134.9V192H605.2V108H622l37.57,57.54V108h16.76Z"/><path class="cls-1" d="M772,171.87a36.4,36.4,0,0,1-15.16,14.81q-9.93,5.28-23.6,5.29H703.4V108h29.84q13.68,0,23.6,5.18A35.73,35.73,0,0,1,772,127.83q5.24,9.45,5.23,22A44.83,44.83,0,0,1,772,171.87Zm-19.2-2q7.43-7.12,7.43-20t-7.43-20.09q-7.44-7.12-21-7.13H720.17V177h11.64Q745.37,177,752.8,169.85Z"/><path class="cls-1" d="M164,214.44a98.83,98.83,0,0,1-49.56-13.33l19.15-33a60.73,60.73,0,1,0,0-105.11L114.47,30A98.88,98.88,0,1,1,164,214.44Z"/><circle class="cls-1" cx="124.04" cy="184.77" r="40.25"/><path class="cls-1" d="M121.5,283.34A98.73,98.73,0,1,1,197.67,121.8l-29.43,24.29a60.56,60.56,0,1,0-2.6,80l27.81,26.13A99.11,99.11,0,0,1,121.5,283.34Z"/></svg>